<svg xmlns="http://www.w3.org/2000/svg" width="24" height="24" viewBox="0 0 24 24" fill="none" stroke="currentColor" stroke-width="2" stroke-linecap="round" stroke-linejoin="round" class="lucide lucide-drama"><path d="M10 20a2 2 0 0 0-2-2H6a2 2 0 0 0-2 2"/><path d="M22 20a2 2 0 0 0-2-2h-2a2 2 0 0 0-2 2"/><path d="M14.5 16a.5.5 0 0 1-.5.5h-3a.5.5 0 0 1-.5-.5v-4a.5.5 0 0 1 .5-.5h3a.5.5 0 0 1 .5.5Z"/><path d="M18 10a2 2 0 1 0 0-4 2 2 0 0 0 0 4Z"/><path d="M6 10a2 2 0 1 0 0-4 2 2 0 0 0 0 4Z"/></svg>